<?xml version="1.0" standalone="no"?><!DOCTYPE svg PUBLIC "-//W3C//DTD SVG 1.1//EN" "http://www.w3.org/Graphics/SVG/1.1/DTD/svg11.dtd"><svg t="1752477934438" class="icon" viewBox="0 0 1024 1024" version="1.1" xmlns="http://www.w3.org/2000/svg" p-id="5417" xmlns:xlink="http://www.w3.org/1999/xlink" width="200" height="200"><path d="M486.534737 0c53.463579 11.560421 65.805474 80.195368 88.387368 111.535158 39.450947 54.810947 66.667789 78.362947 88.117895 76.422737 33.738105-3.018105 41.633684-51.388632 41.633684-51.388632 10.051368-1.616842 57.586526-1.616842 61.520842 86.177684 4.149895 87.821474 33.953684 83.159579 49.717895 89.222737 15.952842 6.036211 12.018526-3.018105 12.018526-3.018105-6.090105-39.343158 53.463579-60.496842 53.463579-60.496842-5.928421 92.348632 33.899789 83.267368 33.89979 83.267368 87.902316 133.874526-77.824 90.812632-3.880421 113.717895l3.880421 1.212632v23.659789H1024v328.704h-170.415158C788.156632 949.005474 674.492632 1024 512.565895 1024c-158.666105 0-264.811789-72.030316-318.464-216.090947l-3.233684-8.892632H0V470.339368h115.496421c-9.701053-36.405895 6.521263-63.595789 15.440842-43.250526 17.758316 40.717474 81.434947 36.298105 53.625263 19.56379-27.809684-16.545684-61.520842-125.628632 15.791158-161.89979 77.500632-36.298105 23.875368-124.011789 37.672421-124.011789 14.012632 0 59.742316 36.298105 59.742316 65.024 0 28.725895 53.463579 55.969684 47.562105 21.180631-5.928421-34.762105-43.600842-42.334316 65.482106-104.34021C520.057263 80.518737 486.534737 0 486.534737 0z m198.332631 551.450947h-46.08v109.864421c0 28.025263 7.491368 49.259789 22.501053 63.730527 14.901895 14.551579 35.516632 21.827368 61.844211 21.827368 12.961684 0 24.791579-1.832421 35.489684-5.470316a73.404632 73.404632 0 0 0 27.136-16.626526 73.296842 73.296842 0 0 0 16.815158-27.001263c3.961263-10.832842 5.955368-23.444211 5.955368-37.914947v-108.409264h-46.08v110.133895c0 15.252211-3.449263 26.597053-10.320842 34.061474-7.060211 7.275789-16.545684 10.886737-28.483368 10.886737-11.910737 0-21.396211-3.799579-28.456421-11.425685-6.898526-7.464421-10.347789-19.132632-10.34779-34.977684v-108.678737z m-367.077052-0.538947c-14.659368 0-28.106105 2.56-40.394105 7.706947-12.422737 5.146947-23.120842 12.207158-32.040422 21.153685-8.730947 8.892632-15.629474 19.078737-20.641684 30.585263-4.850526 11.533474-7.275789 23.956211-7.275789 37.26821l0.188631 7.006316c0.673684 10.752 3.045053 20.938105 7.087158 30.639158 4.931368 11.506526 11.722105 21.557895 20.372211 30.181053 8.919579 8.784842 19.509895 15.791158 31.797895 21.018947 12.261053 5.066105 25.734737 7.572211 40.394105 7.57221a105.094737 105.094737 0 0 0 40.636631-7.545263 96.067368 96.067368 0 0 0 31.663158-21.018947c8.892632-9.081263 15.898947-19.321263 20.911158-30.746947 4.850526-11.614316 7.275789-23.983158 7.27579-37.106527l-0.188632-7.114105a93.372632 93.372632 0 0 0-27.621053-61.008842 96.552421 96.552421 0 0 0-31.528421-20.884211 103.531789 103.531789 0 0 0-40.636631-7.706947z m165.78021 0.538947h-41.957052v192.592842h45.541052v-116.520421l88.468211 116.520421h39.31621v-192.592842h-45.810526v112.801685l-85.557895-112.801685z m-354.735158 0.269474H38.534737v192.080842H128.808421c22.501053 0 39.693474-5.820632 51.523368-17.434947 8.811789-8.704 13.231158-19.590737 13.231158-32.714105 0-21.746526-8.218947-36.998737-24.629894-45.783579 16.437895-8.946526 24.629895-24.198737 24.629894-45.756632 0-13.285053-4.419368-24.279579-13.231158-32.983579-11.856842-11.614316-29.022316-17.434947-51.523368-17.434947z m778.617264-2.96421c-9.970526 0-19.132632 1.347368-27.405474 4.015157a66.371368 66.371368 0 0 0-21.584842 12.126316 51.954526 51.954526 0 0 0-13.904842 18.189474c-3.098947 7.006316-4.634947 14.740211-4.634948 23.174737l0.161685 5.874526c0.458105 6.925474 1.886316 12.934737 4.203789 18.054737 2.991158 6.197895 7.221895 11.479579 12.719158 15.818105 5.470316 4.446316 12.180211 8.084211 20.102737 10.913684 7.868632 3.018105 16.572632 5.658947 26.085052 7.841685l2.66779 0.808421c6.602105 1.697684 11.964632 3.314526 16.006737 4.931368l3.395368 1.239579c3.179789 1.266526 5.739789 2.479158 7.733895 3.664842 2.398316 1.697684 4.096 3.503158 5.173895 5.470316 0.889263 1.940211 1.320421 4.392421 1.320421 7.302737l-0.188632 3.179789a13.985684 13.985684 0 0 1-6.305684 9.970527c-4.230737 2.856421-10.293895 4.284632-18.135579 4.284631-10.320842 0-19.833263-1.994105-28.483369-5.982316a133.766737 133.766737 0 0 1-27.917473-18.243368l-26.085053 31.393684c11.641263 10.482526 24.495158 18.270316 38.534737 23.444211a126.868211 126.868211 0 0 0 43.034947 7.545263c10.320842 0 19.941053-1.347368 28.833685-4.096 8.677053-2.694737 16.168421-6.575158 22.528-11.722105 6.278737-5.039158 11.048421-11.210105 14.282105-18.485895a57.128421 57.128421 0 0 0 5.173895-24.737684l-0.134737-5.335579a49.690947 49.690947 0 0 0-3.69179-16.49179 43.385263 43.385263 0 0 0-11.910737-15.818105 78.228211 78.228211 0 0 0-19.213473-11.452632 191.407158 191.407158 0 0 0-25.815579-8.623158l-11.749053-3.233684-7.706947-2.236631a63.326316 63.326316 0 0 1-11.937684-4.931369 14.659368 14.659368 0 0 1-5.658948-5.712842 14.443789 14.443789 0 0 1-2.021052-7.976421v-0.538947c0-4.581053 1.886316-8.353684 5.712842-11.156211 3.503158-2.937263 8.946526-4.392421 16.27621-4.392421 7.599158 0 15.279158 1.616842 23.04 4.904421 7.68 3.206737 16.464842 8.111158 26.354527 14.767158l22.770526-32.983579c-9.970526-8.084211-20.911158-14.228211-32.821895-18.485895a115.280842 115.280842 0 0 0-38.80421-6.251789zM128.538947 665.6c4.311579 0 8.030316 1.293474 11.129264 3.853474 5.389474 3.988211 8.084211 9.808842 8.08421 17.434947 0 11.964632-8.380632 18.135579-25.168842 18.485895H83.536842v-28.079158l37.214316-10.509474 3.584-0.781473a22.986105 22.986105 0 0 1 4.230737-0.404211z m188.712421-75.425684c7.572211 0 14.605474 1.455158 21.018948 4.392421a54.891789 54.891789 0 0 1 28.483368 30.450526c2.748632 6.925474 4.122947 14.470737 4.122948 22.63579l-0.161685 5.200842a59.904 59.904 0 0 1-3.961263 17.677473 50.822737 50.822737 0 0 1-11.102316 18.216421c-4.581053 5.12-10.159158 9.162105-16.707368 12.126316a55.619368 55.619368 0 0 1-21.180632 3.961263c-7.599158 0-14.659368-1.401263-21.180631-4.257684a50.526316 50.526316 0 0 1-17.084632-12.099368 57.721263 57.721263 0 0 1-11.398737-18.216421 62.976 62.976 0 0 1-4.096-22.63579l0.161685-5.335579c0.431158-6.332632 1.751579-12.261053 3.934315-17.785263 2.748632-6.844632 6.548211-12.826947 11.398737-17.973895 4.581053-5.227789 10.105263-9.216 16.545684-11.964631a51.2 51.2 0 0 1 21.207579-4.392421z m-194.667789 0c16.788211 0.350316 25.168842 6.790737 25.168842 19.294316 0 6.036211-1.994105 10.051368-5.955368 12.126315-3.718737 2.021053-8.919579 3.826526-15.629474 5.416421l-42.630737 11.991579V590.147368z" fill="#d8d8d8" p-id="5418"></path></svg>