<?xml version="1.0" standalone="no"?><!DOCTYPE svg PUBLIC "-//W3C//DTD SVG 1.1//EN" "http://www.w3.org/Graphics/SVG/1.1/DTD/svg11.dtd"><svg t="1752478458353" class="icon" viewBox="0 0 1024 1024" version="1.1" xmlns="http://www.w3.org/2000/svg" p-id="5476" xmlns:xlink="http://www.w3.org/1999/xlink" width="200" height="200"><path d="M444.952381 85.333333c-67.047619 14.628571-112.152381 32.914286-157.257143 63.390477-30.47619 21.942857-51.2 26.819048-108.495238 24.380952-60.952381-3.657143-76.8 0-101.180952 23.161905-97.52381 91.428571 60.952381 319.390476 327.923809 471.771428C547.352381 748.495238 719.238095 807.009524 825.295238 809.447619c76.8 1.219048 90.209524-2.438095 118.247619-28.038095 37.790476-36.571429 41.447619-86.552381 8.533333-140.190476-18.285714-29.257143-23.161905-58.514286-21.942857-129.219048 1.219048-103.619048-14.628571-164.571429-67.047619-246.247619C780.190476 134.095238 594.895238 53.638095 444.952381 85.333333zM186.514286 227.961905c2.438095 6.095238-9.752381 32.914286-28.038096 60.952381l-32.914285 51.2-14.628572-30.476191c-18.285714-42.666667-17.066667-62.171429 8.533334-76.8 24.380952-14.628571 59.733333-17.066667 67.047619-4.87619zM926.47619 721.67619c0 13.409524-58.514286 40.228571-68.266666 30.476191-3.657143-3.657143 2.438095-24.380952 14.628571-45.104762 20.72381-34.133333 24.380952-35.352381 37.790476-15.847619 8.533333 10.971429 15.847619 25.6 15.847619 30.47619zM114.590476 591.238095c20.72381 115.809524 140.190476 248.685714 264.533334 293.790476 68.266667 24.380952 182.857143 26.819048 259.657142 6.095239l58.514286-17.066667-107.27619-39.009524c-169.447619-60.952381-296.228571-131.657143-418.133334-235.27619l-65.828571-56.076191 8.533333 47.542857z" fill="#fe0c07" p-id="5477"></path></svg>